<svg width="324" height="367" viewBox="0 0 324 367" fill="none" xmlns="http://www.w3.org/2000/svg">
<path d="M71 143C71 118.865 80.5875 95.7191 97.6533 78.6533C114.719 61.5875 137.865 52 162 52C186.135 52 209.281 61.5874 226.347 78.6532C243.412 95.7191 253 118.865 253 143L224.282 143C224.282 126.482 217.72 110.64 206.04 98.9597C194.36 87.2795 178.518 80.7177 162 80.7177C145.482 80.7177 129.64 87.2795 117.96 98.9598C106.28 110.64 99.7177 126.482 99.7177 143L71 143Z" fill="#FA8523"/>
<path d="M253.52 224.144C253.127 248.417 243.109 271.539 225.668 288.425C208.227 305.311 184.792 314.577 160.52 314.184C136.247 313.791 113.125 303.773 96.2391 286.332C79.3534 268.891 70.0877 245.457 70.4802 221.184L99.362 221.651C99.0933 238.264 105.435 254.303 116.992 266.24C128.549 278.177 144.374 285.034 160.987 285.302C177.6 285.571 193.639 279.229 205.575 267.672C217.512 256.115 224.369 240.29 224.638 223.677L253.52 224.144Z" fill="#FE5D7C"/>
</svg>
