<svg width="77" height="55" viewBox="0 0 77 55" fill="none" xmlns="http://www.w3.org/2000/svg">
<path d="M50.5 5.65233e-06C57.5282 4.11626e-06 64.2686 2.84464 69.2383 7.90812C74.208 12.9716 77 19.8391 77 27C77 34.1608 74.2081 41.0284 69.2383 46.0919C64.2686 51.1554 57.5282 54 50.5 54L50.5 45.4794C55.3103 45.4794 59.9235 43.5324 63.3249 40.0669C66.7263 36.6013 68.6372 31.901 68.6372 27C68.6372 22.099 66.7263 17.3987 63.3249 13.9331C59.9235 10.4676 55.3103 8.52063 50.5 8.52064L50.5 5.65233e-06Z" fill="#DD141D"/>
<path d="M26.684 53.7998C19.6069 53.6853 12.8652 50.7642 7.94193 45.679C3.01864 40.5939 0.317068 33.7612 0.431529 26.6842C0.545991 19.6071 3.46711 12.8654 8.55228 7.94211C13.6374 3.01881 20.4701 0.317241 27.5472 0.431702L27.411 8.85262C22.5673 8.77428 17.8909 10.6233 14.4105 13.9929C10.9301 17.3625 8.93079 21.9767 8.85245 26.8204C8.77411 31.664 10.6231 36.3405 13.9927 39.8209C17.3623 43.3013 21.9765 45.3005 26.8202 45.3789L26.684 53.7998Z" fill="#FE5D7C"/>
</svg>
