<svg width="28" height="28" viewBox="0 0 28 28" fill="none" xmlns="http://www.w3.org/2000/svg">
<path d="M23.3334 1.16663H4.66675C3.73849 1.16663 2.84825 1.53537 2.19187 2.19175C1.5355 2.84813 1.16675 3.73837 1.16675 4.66663V23.3333C1.16675 24.2616 1.5355 25.1518 2.19187 25.8082C2.84825 26.4645 3.73849 26.8333 4.66675 26.8333H23.3334C24.2617 26.8333 25.1519 26.4645 25.8083 25.8082C26.4647 25.1518 26.8334 24.2616 26.8334 23.3333V4.66663C26.8334 3.73837 26.4647 2.84813 25.8083 2.19175C25.1519 1.53537 24.2617 1.16663 23.3334 1.16663V1.16663ZM9.33342 24.5H4.66675C4.35733 24.5 4.06058 24.377 3.84179 24.1583C3.623 23.9395 3.50008 23.6427 3.50008 23.3333V21.9566C3.8742 22.0925 4.26875 22.1635 4.66675 22.1666H9.33342V24.5ZM9.33342 19.8333H4.66675C4.35733 19.8333 4.06058 19.7104 3.84179 19.4916C3.623 19.2728 3.50008 18.976 3.50008 18.6666V17.29C3.8742 17.4258 4.26875 17.4968 4.66675 17.5H9.33342V19.8333ZM9.33342 15.1666H4.66675C4.35733 15.1666 4.06058 15.0437 3.84179 14.8249C3.623 14.6061 3.50008 14.3094 3.50008 14V4.66663C3.50008 4.35721 3.623 4.06046 3.84179 3.84167C4.06058 3.62288 4.35733 3.49996 4.66675 3.49996H9.33342V15.1666ZM16.3334 24.5H11.6667V17.5H16.3334V24.5ZM16.3334 15.1666H11.6667V3.49996H16.3334V15.1666ZM24.5001 23.3333C24.5001 23.6427 24.3772 23.9395 24.1584 24.1583C23.9396 24.377 23.6428 24.5 23.3334 24.5H18.6667V22.1666H23.3334C23.7314 22.1635 24.126 22.0925 24.5001 21.9566V23.3333ZM24.5001 18.6666C24.5001 18.976 24.3772 19.2728 24.1584 19.4916C23.9396 19.7104 23.6428 19.8333 23.3334 19.8333H18.6667V17.5H23.3334C23.7314 17.4968 24.126 17.4258 24.5001 17.29V18.6666ZM24.5001 14C24.5001 14.3094 24.3772 14.6061 24.1584 14.8249C23.9396 15.0437 23.6428 15.1666 23.3334 15.1666H18.6667V3.49996H23.3334C23.6428 3.49996 23.9396 3.62288 24.1584 3.84167C24.3772 4.06046 24.5001 4.35721 24.5001 4.66663V14ZM21.0001 8.16663C20.7693 8.16663 20.5438 8.23505 20.3519 8.36325C20.1601 8.49144 20.0105 8.67365 19.9222 8.88683C19.8339 9.10001 19.8108 9.33459 19.8558 9.5609C19.9008 9.78721 20.012 9.99509 20.1751 10.1583C20.3383 10.3214 20.5462 10.4325 20.7725 10.4775C20.9988 10.5226 21.2334 10.4995 21.4465 10.4112C21.6597 10.3229 21.8419 10.1733 21.9701 9.98146C22.0983 9.7896 22.1667 9.56404 22.1667 9.33329C22.1667 9.02387 22.0438 8.72713 21.825 8.50834C21.6062 8.28954 21.3095 8.16663 21.0001 8.16663ZM7.00008 10.5C7.23083 10.5 7.45639 10.4315 7.64825 10.3033C7.8401 10.1751 7.98964 9.99294 8.07794 9.77976C8.16624 9.56658 8.18935 9.332 8.14433 9.10569C8.09932 8.87938 7.9882 8.6715 7.82504 8.50834C7.66188 8.34517 7.454 8.23406 7.22769 8.18904C7.00138 8.14403 6.7668 8.16713 6.55362 8.25543C6.34044 8.34374 6.15823 8.49327 6.03003 8.68513C5.90184 8.87699 5.83342 9.10255 5.83342 9.33329C5.83342 9.64271 5.95633 9.93946 6.17512 10.1583C6.39392 10.377 6.69066 10.5 7.00008 10.5Z" fill="#2A1C53"/>
</svg>
