<svg width="28" height="27" viewBox="0 0 28 27" fill="none" xmlns="http://www.w3.org/2000/svg">
<path d="M27.953 10.114C27.8647 9.85826 27.7041 9.63364 27.4907 9.46737C27.2773 9.3011 27.0202 9.20033 26.7507 9.17726L18.7955 8.01684L15.2304 0.788681C15.1159 0.552303 14.9371 0.352952 14.7146 0.213466C14.492 0.0739803 14.2347 0 13.9721 0C13.7094 0 13.4521 0.0739803 13.2296 0.213466C13.007 0.352952 12.8283 0.552303 12.7138 0.788681L9.14863 8.00286L1.19346 9.17726C0.934701 9.21404 0.691434 9.32261 0.491263 9.49066C0.291092 9.6587 0.142032 9.87949 0.0609987 10.128C-0.0131774 10.3708 -0.0198338 10.6292 0.0417437 10.8755C0.103321 11.1218 0.230808 11.3467 0.410523 11.5261L6.18466 17.1185L4.78657 25.0596C4.73665 25.3218 4.76279 25.5927 4.86188 25.8404C4.96098 26.0882 5.1289 26.3024 5.34581 26.4577C5.55722 26.6089 5.80658 26.6981 6.06589 26.7154C6.3252 26.7327 6.5842 26.6773 6.81381 26.5556L13.9721 22.8227L21.1024 26.5696C21.2986 26.6803 21.5202 26.7381 21.7455 26.7374C22.0416 26.7384 22.3305 26.6454 22.5704 26.4717C22.7873 26.3163 22.9552 26.1021 23.0543 25.8544C23.1534 25.6067 23.1795 25.3357 23.1296 25.0736L21.7315 17.1324L27.5056 11.54C27.7075 11.369 27.8567 11.1442 27.9359 10.8918C28.0151 10.6394 28.021 10.3697 27.953 10.114ZM19.3547 15.7064C19.1908 15.865 19.0681 16.0613 18.9974 16.2782C18.9268 16.495 18.9102 16.7259 18.9493 16.9507L19.9559 22.8087L14.6991 20.0125C14.4968 19.9048 14.2711 19.8485 14.042 19.8485C13.8128 19.8485 13.5871 19.9048 13.3849 20.0125L8.12802 22.8087L9.13465 16.9507C9.17371 16.7259 9.15718 16.495 9.0865 16.2782C9.01583 16.0613 8.89316 15.865 8.7292 15.7064L4.53491 11.5121L10.4209 10.6592C10.6474 10.6277 10.8627 10.5412 11.0479 10.4071C11.2332 10.273 11.3827 10.0956 11.4835 9.89029L13.9721 4.56354L16.6005 9.90427C16.7012 10.1096 16.8507 10.287 17.036 10.4211C17.2212 10.5551 17.4366 10.6417 17.663 10.6732L23.549 11.5261L19.3547 15.7064Z" fill="#2A1C53"/>
</svg>
