<svg width="24" height="24" viewBox="0 0 24 24" fill="none" xmlns="http://www.w3.org/2000/svg">
<path fill-rule="evenodd" clip-rule="evenodd" d="M5.45455 0C4.00791 0 2.62053 0.574674 1.5976 1.5976C0.574674 2.62053 0 4.00791 0 5.45455C0 6.90118 0.574674 8.28857 1.5976 9.31149C2.62053 10.3344 4.00791 10.9091 5.45455 10.9091C6.90118 10.9091 8.28857 10.3344 9.31149 9.31149C10.3344 8.28857 10.9091 6.90118 10.9091 5.45455C10.9091 4.00791 10.3344 2.62053 9.31149 1.5976C8.28857 0.574674 6.90118 0 5.45455 0ZM2.18182 5.45455C2.18182 4.58656 2.52662 3.75413 3.14038 3.14038C3.75413 2.52662 4.58656 2.18182 5.45455 2.18182C6.32253 2.18182 7.15496 2.52662 7.76871 3.14038C8.38247 3.75413 8.72727 4.58656 8.72727 5.45455C8.72727 6.32253 8.38247 7.15496 7.76871 7.76871C7.15496 8.38247 6.32253 8.72727 5.45455 8.72727C4.58656 8.72727 3.75413 8.38247 3.14038 7.76871C2.52662 7.15496 2.18182 6.32253 2.18182 5.45455ZM18.5455 0C17.0988 0 15.7114 0.574674 14.6885 1.5976C13.6656 2.62053 13.0909 4.00791 13.0909 5.45455C13.0909 6.90118 13.6656 8.28857 14.6885 9.31149C15.7114 10.3344 17.0988 10.9091 18.5455 10.9091C19.9921 10.9091 21.3795 10.3344 22.4024 9.31149C23.4253 8.28857 24 6.90118 24 5.45455C24 4.00791 23.4253 2.62053 22.4024 1.5976C21.3795 0.574674 19.9921 0 18.5455 0ZM15.2727 5.45455C15.2727 4.58656 15.6175 3.75413 16.2313 3.14038C16.845 2.52662 17.6775 2.18182 18.5455 2.18182C19.4134 2.18182 20.2459 2.52662 20.8596 3.14038C21.4734 3.75413 21.8182 4.58656 21.8182 5.45455C21.8182 6.32253 21.4734 7.15496 20.8596 7.76871C20.2459 8.38247 19.4134 8.72727 18.5455 8.72727C17.6775 8.72727 16.845 8.38247 16.2313 7.76871C15.6175 7.15496 15.2727 6.32253 15.2727 5.45455ZM0 18.5455C0 17.0988 0.574674 15.7114 1.5976 14.6885C2.62053 13.6656 4.00791 13.0909 5.45455 13.0909C6.90118 13.0909 8.28857 13.6656 9.31149 14.6885C10.3344 15.7114 10.9091 17.0988 10.9091 18.5455C10.9091 19.9921 10.3344 21.3795 9.31149 22.4024C8.28857 23.4253 6.90118 24 5.45455 24C4.00791 24 2.62053 23.4253 1.5976 22.4024C0.574674 21.3795 0 19.9921 0 18.5455ZM5.45455 15.2727C4.58656 15.2727 3.75413 15.6175 3.14038 16.2313C2.52662 16.845 2.18182 17.6775 2.18182 18.5455C2.18182 19.4134 2.52662 20.2459 3.14038 20.8596C3.75413 21.4734 4.58656 21.8182 5.45455 21.8182C6.32253 21.8182 7.15496 21.4734 7.76871 20.8596C8.38247 20.2459 8.72727 19.4134 8.72727 18.5455C8.72727 17.6775 8.38247 16.845 7.76871 16.2313C7.15496 15.6175 6.32253 15.2727 5.45455 15.2727ZM18.5455 13.0909C17.0988 13.0909 15.7114 13.6656 14.6885 14.6885C13.6656 15.7114 13.0909 17.0988 13.0909 18.5455C13.0909 19.9921 13.6656 21.3795 14.6885 22.4024C15.7114 23.4253 17.0988 24 18.5455 24C19.9921 24 21.3795 23.4253 22.4024 22.4024C23.4253 21.3795 24 19.9921 24 18.5455C24 17.0988 23.4253 15.7114 22.4024 14.6885C21.3795 13.6656 19.9921 13.0909 18.5455 13.0909ZM15.2727 18.5455C15.2727 17.6775 15.6175 16.845 16.2313 16.2313C16.845 15.6175 17.6775 15.2727 18.5455 15.2727C19.4134 15.2727 20.2459 15.6175 20.8596 16.2313C21.4734 16.845 21.8182 17.6775 21.8182 18.5455C21.8182 19.4134 21.4734 20.2459 20.8596 20.8596C20.2459 21.4734 19.4134 21.8182 18.5455 21.8182C17.6775 21.8182 16.845 21.4734 16.2313 20.8596C15.6175 20.2459 15.2727 19.4134 15.2727 18.5455Z" fill="white"/>
</svg>
