<svg width="24" height="24" viewBox="0 0 24 24" fill="none" xmlns="http://www.w3.org/2000/svg">
<path d="M0 4C0 1.79086 1.79086 0 4 0H20C22.2091 0 24 1.79086 24 4V20C24 22.2091 22.2091 24 20 24H4C1.79086 24 0 22.2091 0 20V4Z" fill="#B11017"/>
<path d="M18.7 7.20002C18.3 6.80002 17.7 6.80002 17.3 7.20002L9.8 14.7L6.7 11.6C6.3 11.2 5.7 11.2 5.3 11.6C4.9 12 4.9 12.6 5.3 13L9.1 16.8C9.3 17 9.5 17.1 9.8 17.1C10.1 17.1 10.3 17 10.5 16.8L18.7 8.60002C19.1 8.20002 19.1 7.60002 18.7 7.20002Z" fill="#FEFDFA"/>
</svg>
