<svg width="28" height="28" viewBox="0 0 28 28" fill="none" xmlns="http://www.w3.org/2000/svg">
<path d="M27.5353 16.2953C27.3319 16.0915 27.0768 15.9469 26.7975 15.8771C26.5181 15.8072 26.225 15.8148 25.9496 15.8989C24.0258 16.4797 21.9805 16.5277 20.0315 16.038C18.0825 15.5482 16.3029 14.5389 14.8822 13.1177C13.4615 11.6964 12.4529 9.91641 11.9638 7.96724C11.4748 6.01808 11.5237 3.97276 12.1052 2.04916C12.19 1.77365 12.1981 1.48023 12.1287 1.20044C12.0592 0.920662 11.9148 0.665108 11.7109 0.461266C11.5071 0.257424 11.2515 0.113007 10.9718 0.0435459C10.692 -0.025915 10.3986 -0.0177916 10.123 0.0670426C7.22967 0.956347 4.69056 2.73571 2.86716 5.15184C1.27262 7.27125 0.300229 9.79307 0.0591057 12.4343C-0.182017 15.0756 0.317667 17.7318 1.50209 20.1049C2.68651 22.478 4.50881 24.4741 6.7645 25.8692C9.0202 27.2643 11.62 28.0032 14.2723 28.0031C17.3688 28.012 20.3828 27.0052 22.8522 25.1369C25.2671 23.3117 27.0446 20.7712 27.9317 17.8771C28.0151 17.6022 28.0222 17.3099 27.9524 17.0313C27.8826 16.7527 27.7384 16.4984 27.5353 16.2953ZM20.9441 22.6038C18.8067 24.2128 16.1601 24.9957 13.4913 24.8085C10.8225 24.6212 8.31119 23.4764 6.41944 21.5846C4.52768 19.6929 3.38283 17.1815 3.19558 14.5127C3.00833 11.844 3.79127 9.19735 5.40032 7.05996C6.24692 5.93995 7.29623 4.98881 8.49374 4.25592C8.46996 4.59421 8.45807 4.93381 8.45807 5.27473C8.46226 9.05842 9.96719 12.6859 12.6427 15.3614C15.3181 18.0369 18.9456 19.5418 22.7293 19.546C23.0703 19.546 23.4099 19.5341 23.7481 19.5103C23.0155 20.708 22.0643 21.7574 20.9441 22.6038Z" fill="white"/>
</svg>
