<svg width="28" height="28" viewBox="0 0 28 28" fill="none" xmlns="http://www.w3.org/2000/svg">
<path d="M27.5353 16.2985C27.3319 16.0947 27.0768 15.9501 26.7975 15.8802C26.5181 15.8104 26.225 15.8179 25.9496 15.9021C24.0258 16.4829 21.9805 16.5309 20.0315 16.0411C18.0825 15.5514 16.3029 14.5421 14.8822 13.1208C13.4615 11.6996 12.4529 9.91958 11.9638 7.97041C11.4748 6.02125 11.5237 3.97594 12.1052 2.05234C12.19 1.77683 12.1981 1.4834 12.1287 1.20362C12.0592 0.923836 11.9148 0.668282 11.7109 0.46444C11.5071 0.260598 11.2515 0.116181 10.9718 0.0467197C10.692 -0.0227412 10.3986 -0.0146178 10.123 0.0702164C7.22967 0.959521 4.69056 2.73889 2.86716 5.15502C1.27262 7.27442 0.300229 9.79625 0.0591057 12.4375C-0.182017 15.0788 0.317667 17.735 1.50209 20.1081C2.68651 22.4812 4.50881 24.4773 6.7645 25.8724C9.0202 27.2675 11.62 28.0064 14.2723 28.0062C17.3688 28.0152 20.3828 27.0084 22.8522 25.1401C25.2671 23.3149 27.0446 20.7743 27.9317 17.8802C28.0151 17.6054 28.0222 17.3131 27.9524 17.0345C27.8826 16.7559 27.7384 16.5015 27.5353 16.2985ZM20.9441 22.6069C18.8067 24.216 16.1601 24.9989 13.4913 24.8117C10.8225 24.6244 8.31119 23.4796 6.41944 21.5878C4.52768 19.6961 3.38283 17.1847 3.19558 14.5159C3.00833 11.8471 3.79127 9.20052 5.40032 7.06314C6.24692 5.94313 7.29623 4.99198 8.49374 4.2591C8.46996 4.59738 8.45807 4.93698 8.45807 5.27791C8.46226 9.0616 9.96719 12.6891 12.6427 15.3646C15.3181 18.0401 18.9456 19.545 22.7293 19.5492C23.0703 19.5492 23.4099 19.5373 23.7481 19.5135C23.0155 20.7112 22.0643 21.7606 20.9441 22.6069Z" fill="#2A1C53"/>
</svg>
