<svg width="28" height="28" viewBox="0 0 28 28" fill="none" xmlns="http://www.w3.org/2000/svg">
<path d="M27.953 10.7453C27.8647 10.4896 27.7041 10.265 27.4907 10.0987C27.2773 9.93245 27.0202 9.83167 26.7507 9.80861L18.7955 8.64819L15.2304 1.42003C15.1159 1.18365 14.9371 0.9843 14.7146 0.844814C14.492 0.705328 14.2347 0.631348 13.9721 0.631348C13.7094 0.631348 13.4521 0.705328 13.2296 0.844814C13.007 0.9843 12.8283 1.18365 12.7138 1.42003L9.14863 8.63421L1.19346 9.80861C0.934701 9.84539 0.691434 9.95396 0.491263 10.122C0.291092 10.29 0.142032 10.5108 0.0609987 10.7593C-0.0131774 11.0021 -0.0198338 11.2606 0.0417437 11.5069C0.103321 11.7532 0.230808 11.9781 0.410523 12.1574L6.18466 17.7498L4.78657 25.691C4.73665 25.9531 4.76279 26.224 4.86188 26.4718C4.96098 26.7195 5.1289 26.9337 5.34581 27.0891C5.55722 27.2402 5.80658 27.3295 6.06589 27.3467C6.3252 27.364 6.5842 27.3087 6.81381 27.187L13.9721 23.454L21.1024 27.2009C21.2986 27.3116 21.5202 27.3694 21.7455 27.3687C22.0416 27.3698 22.3305 27.2767 22.5704 27.1031C22.7873 26.9477 22.9552 26.7335 23.0543 26.4857C23.1534 26.238 23.1795 25.9671 23.1296 25.705L21.7315 17.7638L27.5056 12.1714C27.7075 12.0004 27.8567 11.7756 27.9359 11.5232C28.0151 11.2707 28.021 11.001 27.953 10.7453ZM19.3547 16.3377C19.1908 16.4963 19.0681 16.6926 18.9974 16.9095C18.9268 17.1264 18.9102 17.3573 18.9493 17.582L19.9559 23.4401L14.6991 20.6439C14.4968 20.5362 14.2711 20.4798 14.042 20.4798C13.8128 20.4798 13.5871 20.5362 13.3849 20.6439L8.12802 23.4401L9.13465 17.582C9.17371 17.3573 9.15718 17.1264 9.0865 16.9095C9.01583 16.6926 8.89316 16.4963 8.7292 16.3377L4.53491 12.1434L10.4209 11.2906C10.6474 11.2591 10.8627 11.1725 11.0479 11.0384C11.2332 10.9044 11.3827 10.7269 11.4835 10.5216L13.9721 5.19489L16.6005 10.5356C16.7012 10.7409 16.8507 10.9184 17.036 11.0524C17.2212 11.1865 17.4366 11.2731 17.663 11.3046L23.549 12.1574L19.3547 16.3377Z" fill="white"/>
</svg>
