<svg width="28" height="28" viewBox="0 0 28 28" fill="none" xmlns="http://www.w3.org/2000/svg">
<path d="M13.9999 10.5C13.3077 10.5 12.631 10.7053 12.0554 11.0899C11.4799 11.4745 11.0312 12.0211 10.7663 12.6606C10.5014 13.3002 10.4321 14.0039 10.5672 14.6829C10.7022 15.3618 11.0356 15.9854 11.525 16.4749C12.0145 16.9644 12.6382 17.2977 13.3171 17.4328C13.996 17.5678 14.6998 17.4985 15.3393 17.2336C15.9789 16.9687 16.5255 16.5201 16.9101 15.9445C17.2946 15.369 17.4999 14.6923 17.4999 14C17.4999 13.0718 17.1312 12.1815 16.4748 11.5252C15.8184 10.8688 14.9282 10.5 13.9999 10.5ZM13.9999 15.1667C13.7692 15.1667 13.5436 15.0983 13.3518 14.9701C13.1599 14.8419 13.0104 14.6597 12.9221 14.4465C12.8338 14.2333 12.8107 13.9987 12.8557 13.7724C12.9007 13.5461 13.0118 13.3382 13.175 13.1751C13.3381 13.0119 13.546 12.9008 13.7723 12.8558C13.9986 12.8108 14.2332 12.8339 14.4464 12.9222C14.6596 13.0105 14.8418 13.16 14.97 13.3519C15.0982 13.5437 15.1666 13.7693 15.1666 14C15.1666 14.3095 15.0437 14.6062 14.8249 14.825C14.6061 15.0438 14.3093 15.1667 13.9999 15.1667ZM24.4999 12.8334H23.2516C22.9912 10.78 22.0556 8.87146 20.5921 7.40789C19.1285 5.94432 17.2199 5.00877 15.1666 4.74837V3.50004C15.1666 3.19062 15.0437 2.89388 14.8249 2.67508C14.6061 2.45629 14.3093 2.33337 13.9999 2.33337C13.6905 2.33337 13.3938 2.45629 13.175 2.67508C12.9562 2.89388 12.8333 3.19062 12.8333 3.50004V4.74837C10.7799 5.00877 8.87134 5.94432 7.40777 7.40789C5.9442 8.87146 5.00864 10.78 4.74825 12.8334H3.49992C3.1905 12.8334 2.89375 12.9563 2.67496 13.1751C2.45617 13.3939 2.33325 13.6906 2.33325 14C2.33325 14.3095 2.45617 14.6062 2.67496 14.825C2.89375 15.0438 3.1905 15.1667 3.49992 15.1667H4.74825C5.00864 17.2201 5.9442 19.1286 7.40777 20.5922C8.87134 22.0558 10.7799 22.9913 12.8333 23.2517V24.5C12.8333 24.8095 12.9562 25.1062 13.175 25.325C13.3938 25.5438 13.6905 25.6667 13.9999 25.6667C14.3093 25.6667 14.6061 25.5438 14.8249 25.325C15.0437 25.1062 15.1666 24.8095 15.1666 24.5V23.2517C17.2199 22.9913 19.1285 22.0558 20.5921 20.5922C22.0556 19.1286 22.9912 17.2201 23.2516 15.1667H24.4999C24.8093 15.1667 25.1061 15.0438 25.3249 14.825C25.5437 14.6062 25.6666 14.3095 25.6666 14C25.6666 13.6906 25.5437 13.3939 25.3249 13.1751C25.1061 12.9563 24.8093 12.8334 24.4999 12.8334ZM13.9999 21C12.6154 21 11.2621 20.5895 10.1109 19.8203C8.95978 19.0512 8.06258 17.9579 7.53276 16.6788C7.00295 15.3997 6.86432 13.9923 7.13442 12.6344C7.40452 11.2765 8.0712 10.0293 9.05017 9.05029C10.0291 8.07133 11.2764 7.40464 12.6343 7.13454C13.9922 6.86445 15.3996 7.00307 16.6787 7.53288C17.9578 8.0627 19.051 8.9599 19.8202 10.111C20.5894 11.2622 20.9999 12.6156 20.9999 14C20.9999 15.8566 20.2624 17.637 18.9497 18.9498C17.6369 20.2625 15.8564 21 13.9999 21Z" fill="white"/>
</svg>
