<svg width="119" height="30" viewBox="0 0 119 30" fill="none" xmlns="http://www.w3.org/2000/svg">
<path d="M0 11C0 4.92487 4.92487 0 11 0H108C114.075 0 119 4.92487 119 11V11C119 17.0751 114.075 22 108 22H11C4.92487 22 0 17.0751 0 11V11Z" fill="#DD141D"/>
<path d="M15.5796 7.10986V8.0498H12.9209V15H11.8359V8.0498H9.17725V7.10986H15.5796ZM17.4917 14.377C18.1326 14.377 18.5713 14.1353 18.8076 13.6519C19.0475 13.1649 19.1675 12.6242 19.1675 12.0298C19.1675 11.4927 19.0815 11.0558 18.9097 10.7192C18.6375 10.1893 18.1685 9.92432 17.5024 9.92432C16.9116 9.92432 16.4819 10.1499 16.2134 10.6011C15.9448 11.0522 15.8105 11.5965 15.8105 12.2339C15.8105 12.8462 15.9448 13.3564 16.2134 13.7646C16.4819 14.1729 16.908 14.377 17.4917 14.377ZM17.5293 9.08105C18.2705 9.08105 18.8971 9.32812 19.4092 9.82227C19.9212 10.3164 20.1772 11.0433 20.1772 12.0029C20.1772 12.9303 19.9517 13.6966 19.5005 14.3018C19.0493 14.9069 18.3493 15.2095 17.4004 15.2095C16.609 15.2095 15.9806 14.9427 15.5151 14.4092C15.0496 13.8721 14.8169 13.1523 14.8169 12.25C14.8169 11.2832 15.0622 10.5133 15.5527 9.94043C16.0433 9.36751 16.7021 9.08105 17.5293 9.08105ZM23.6147 14.377C24.2557 14.377 24.6943 14.1353 24.9307 13.6519C25.1706 13.1649 25.2905 12.6242 25.2905 12.0298C25.2905 11.4927 25.2046 11.0558 25.0327 10.7192C24.7606 10.1893 24.2915 9.92432 23.6255 9.92432C23.0347 9.92432 22.605 10.1499 22.3364 10.6011C22.0679 11.0522 21.9336 11.5965 21.9336 12.2339C21.9336 12.8462 22.0679 13.3564 22.3364 13.7646C22.605 14.1729 23.0311 14.377 23.6147 14.377ZM23.6523 9.08105C24.3936 9.08105 25.0202 9.32812 25.5322 9.82227C26.0443 10.3164 26.3003 11.0433 26.3003 12.0029C26.3003 12.9303 26.0747 13.6966 25.6235 14.3018C25.1724 14.9069 24.4723 15.2095 23.5234 15.2095C22.7321 15.2095 22.1037 14.9427 21.6382 14.4092C21.1727 13.8721 20.9399 13.1523 20.9399 12.25C20.9399 11.2832 21.1852 10.5133 21.6758 9.94043C22.1663 9.36751 22.8252 9.08105 23.6523 9.08105ZM27.4819 7.10986H28.4487V15H27.4819V7.10986ZM30.0977 7.6416H31.0752V9.24756H31.9937V10.0371H31.0752V13.7915C31.0752 13.992 31.1432 14.1263 31.2793 14.1943C31.3545 14.2337 31.4798 14.2534 31.6553 14.2534C31.7018 14.2534 31.752 14.2534 31.8057 14.2534C31.8594 14.2498 31.922 14.2445 31.9937 14.2373V15C31.8826 15.0322 31.7663 15.0555 31.6445 15.0698C31.5264 15.0841 31.3975 15.0913 31.2578 15.0913C30.8066 15.0913 30.5005 14.9767 30.3394 14.7476C30.1782 14.5148 30.0977 14.214 30.0977 13.8452V10.0371H29.3188V9.24756H30.0977V7.6416ZM32.9658 9.27441H33.9487V15H32.9658V9.27441ZM32.9658 7.10986H33.9487V8.20557H32.9658V7.10986ZM37.8428 14.3501C38.2939 14.3501 38.6681 14.1621 38.9653 13.7861C39.2661 13.4066 39.4165 12.8408 39.4165 12.0889C39.4165 11.6305 39.3503 11.2367 39.2178 10.9072C38.9671 10.2734 38.5088 9.95654 37.8428 9.95654C37.1732 9.95654 36.7148 10.2913 36.4678 10.9609C36.3353 11.319 36.269 11.7738 36.269 12.3252C36.269 12.7692 36.3353 13.147 36.4678 13.4585C36.7184 14.0529 37.1768 14.3501 37.8428 14.3501ZM35.3398 9.27441H36.2798V10.0371C36.4731 9.77572 36.6844 9.5734 36.9136 9.43018C37.2394 9.21533 37.6226 9.10791 38.063 9.10791C38.7147 9.10791 39.2679 9.35856 39.7227 9.85986C40.1774 10.3576 40.4048 11.0701 40.4048 11.9976C40.4048 13.2508 40.0771 14.146 39.4219 14.6831C39.0065 15.0233 38.5231 15.1934 37.9717 15.1934C37.5384 15.1934 37.175 15.0985 36.8813 14.9087C36.7095 14.8013 36.5179 14.6169 36.3066 14.3555V17.2935H35.3398V9.27441ZM44.6265 7.10986H45.5933V15H44.6265V7.10986ZM47.79 13.4692C47.79 13.7485 47.8921 13.9688 48.0962 14.1299C48.3003 14.291 48.542 14.3716 48.8213 14.3716C49.1615 14.3716 49.4909 14.2928 49.8096 14.1353C50.3467 13.8739 50.6152 13.446 50.6152 12.8516V12.0728C50.4971 12.1479 50.3449 12.2106 50.1587 12.2607C49.9725 12.3109 49.7899 12.3467 49.6108 12.3682L49.0254 12.4434C48.6745 12.4899 48.4113 12.5633 48.2358 12.6636C47.9386 12.8319 47.79 13.1004 47.79 13.4692ZM50.1318 11.5142C50.3538 11.4855 50.5024 11.3924 50.5776 11.2349C50.6206 11.1489 50.6421 11.0254 50.6421 10.8643C50.6421 10.5348 50.5239 10.2967 50.2876 10.1499C50.0549 9.99951 49.7201 9.92432 49.2832 9.92432C48.7783 9.92432 48.4202 10.0604 48.209 10.3325C48.0908 10.4829 48.0138 10.7067 47.978 11.0039H47.0757C47.0936 10.2949 47.3228 9.80257 47.7632 9.52686C48.2072 9.24756 48.721 9.10791 49.3047 9.10791C49.9814 9.10791 50.5311 9.23682 50.9536 9.49463C51.3726 9.75244 51.582 10.1535 51.582 10.6978V14.0117C51.582 14.112 51.6017 14.1925 51.6411 14.2534C51.6841 14.3143 51.7718 14.3447 51.9043 14.3447C51.9473 14.3447 51.9956 14.3429 52.0493 14.3394C52.103 14.3322 52.1603 14.3232 52.2212 14.3125V15.0269C52.0708 15.0698 51.9562 15.0967 51.8774 15.1074C51.7987 15.1182 51.6912 15.1235 51.5552 15.1235C51.2222 15.1235 50.9805 15.0054 50.8301 14.769C50.7513 14.6437 50.6958 14.4665 50.6636 14.2373C50.4666 14.4951 50.1838 14.7189 49.8149 14.9087C49.4461 15.0985 49.0397 15.1934 48.5957 15.1934C48.0622 15.1934 47.6253 15.0322 47.2852 14.71C46.9486 14.3841 46.7803 13.9777 46.7803 13.4907C46.7803 12.9572 46.9468 12.5436 47.2798 12.25C47.6128 11.9564 48.0496 11.7756 48.5903 11.7075L50.1318 11.5142ZM53.0967 7.08301H54.0366V9.9458C54.2479 9.67008 54.5003 9.46061 54.7939 9.31738C55.0876 9.17057 55.4062 9.09717 55.75 9.09717C56.4661 9.09717 57.0462 9.34424 57.4902 9.83838C57.9378 10.3289 58.1616 11.054 58.1616 12.0137C58.1616 12.9232 57.9414 13.6787 57.501 14.2803C57.0605 14.8818 56.45 15.1826 55.6694 15.1826C55.2326 15.1826 54.8638 15.077 54.563 14.8657C54.384 14.7404 54.1924 14.5399 53.9883 14.2642V15H53.0967V7.08301ZM55.6104 14.3286C56.1331 14.3286 56.5234 14.1209 56.7812 13.7056C57.0426 13.2902 57.1733 12.7424 57.1733 12.062C57.1733 11.4569 57.0426 10.9556 56.7812 10.5581C56.5234 10.1606 56.1421 9.96191 55.6372 9.96191C55.1968 9.96191 54.8101 10.1248 54.4771 10.4507C54.1476 10.7765 53.9829 11.3136 53.9829 12.062C53.9829 12.6027 54.0509 13.0413 54.187 13.3779C54.4412 14.0117 54.9157 14.3286 55.6104 14.3286ZM61.6904 9.11865C62.0986 9.11865 62.4943 9.21533 62.8774 9.40869C63.2606 9.59847 63.5524 9.84554 63.7529 10.1499C63.9463 10.4399 64.0752 10.7783 64.1396 11.165C64.1969 11.43 64.2256 11.8525 64.2256 12.4326H60.0093C60.0272 13.0163 60.165 13.4854 60.4229 13.8398C60.6807 14.1908 61.0799 14.3662 61.6206 14.3662C62.1255 14.3662 62.5283 14.1997 62.8291 13.8667C63.001 13.6733 63.1227 13.4495 63.1943 13.1953H64.145C64.12 13.4066 64.0358 13.6429 63.8926 13.9043C63.7529 14.1621 63.5954 14.3734 63.4199 14.5381C63.1263 14.8245 62.7629 15.0179 62.3296 15.1182C62.0968 15.1755 61.8337 15.2041 61.54 15.2041C60.8239 15.2041 60.217 14.9445 59.7192 14.4253C59.2215 13.9025 58.9727 13.172 58.9727 12.2339C58.9727 11.3101 59.2233 10.5599 59.7246 9.9834C60.2259 9.4069 60.8812 9.11865 61.6904 9.11865ZM63.2319 11.6646C63.1925 11.2456 63.1012 10.9108 62.958 10.6602C62.693 10.1947 62.2508 9.96191 61.6313 9.96191C61.1873 9.96191 60.8149 10.123 60.5142 10.4453C60.2134 10.764 60.054 11.1704 60.0361 11.6646H63.2319ZM65.4448 7.10986H66.4116V15H65.4448V7.10986ZM71.1221 7.6416H72.0996V9.24756H73.0181V10.0371H72.0996V13.7915C72.0996 13.992 72.1676 14.1263 72.3037 14.1943C72.3789 14.2337 72.5042 14.2534 72.6797 14.2534C72.7262 14.2534 72.7764 14.2534 72.8301 14.2534C72.8838 14.2498 72.9465 14.2445 73.0181 14.2373V15C72.9071 15.0322 72.7907 15.0555 72.6689 15.0698C72.5508 15.0841 72.4219 15.0913 72.2822 15.0913C71.8311 15.0913 71.5249 14.9767 71.3638 14.7476C71.2026 14.5148 71.1221 14.214 71.1221 13.8452V10.0371H70.3433V9.24756H71.1221V7.6416ZM76.3857 9.11865C76.7939 9.11865 77.1896 9.21533 77.5728 9.40869C77.9559 9.59847 78.2477 9.84554 78.4482 10.1499C78.6416 10.4399 78.7705 10.7783 78.835 11.165C78.8923 11.43 78.9209 11.8525 78.9209 12.4326H74.7046C74.7225 13.0163 74.8604 13.4854 75.1182 13.8398C75.376 14.1908 75.7752 14.3662 76.3159 14.3662C76.8208 14.3662 77.2236 14.1997 77.5244 13.8667C77.6963 13.6733 77.818 13.4495 77.8896 13.1953H78.8403C78.8153 13.4066 78.7311 13.6429 78.5879 13.9043C78.4482 14.1621 78.2907 14.3734 78.1152 14.5381C77.8216 14.8245 77.4582 15.0179 77.0249 15.1182C76.7922 15.1755 76.529 15.2041 76.2354 15.2041C75.5192 15.2041 74.9123 14.9445 74.4146 14.4253C73.9168 13.9025 73.668 13.172 73.668 12.2339C73.668 11.3101 73.9186 10.5599 74.4199 9.9834C74.9212 9.4069 75.5765 9.11865 76.3857 9.11865ZM77.9272 11.6646C77.8879 11.2456 77.7965 10.9108 77.6533 10.6602C77.3883 10.1947 76.9461 9.96191 76.3267 9.96191C75.8826 9.96191 75.5103 10.123 75.2095 10.4453C74.9087 10.764 74.7493 11.1704 74.7314 11.6646H77.9272ZM79.5654 9.24756H80.8169L82.1382 11.2725L83.4756 9.24756L84.6519 9.27441L82.7129 12.0513L84.7378 15H83.5024L82.0737 12.8408L80.688 15H79.4634L81.4883 12.0513L79.5654 9.24756ZM85.8066 7.6416H86.7842V9.24756H87.7026V10.0371H86.7842V13.7915C86.7842 13.992 86.8522 14.1263 86.9883 14.1943C87.0635 14.2337 87.1888 14.2534 87.3643 14.2534C87.4108 14.2534 87.4609 14.2534 87.5146 14.2534C87.5684 14.2498 87.631 14.2445 87.7026 14.2373V15C87.5916 15.0322 87.4753 15.0555 87.3535 15.0698C87.2354 15.0841 87.1064 15.0913 86.9668 15.0913C86.5156 15.0913 86.2095 14.9767 86.0483 14.7476C85.8872 14.5148 85.8066 14.214 85.8066 13.8452V10.0371H85.0278V9.24756H85.8066V7.6416Z" fill="#FEFDFA"/>
<path d="M103.823 11L107.498 7.33082C107.607 7.22098 107.669 7.072 107.669 6.91665C107.669 6.76131 107.607 6.61233 107.498 6.50249C107.388 6.39264 107.239 6.33093 107.083 6.33093C106.928 6.33093 106.779 6.39264 106.669 6.50249L103 10.1775L99.3308 6.50249C99.221 6.39264 99.072 6.33093 98.9167 6.33093C98.7613 6.33093 98.6123 6.39264 98.5025 6.50249C98.3927 6.61233 98.331 6.76131 98.331 6.91665C98.331 7.072 98.3927 7.22098 98.5025 7.33082L102.178 11L98.5025 14.6692C98.4478 14.7234 98.4044 14.7879 98.3748 14.859C98.3452 14.9301 98.33 15.0063 98.33 15.0833C98.33 15.1603 98.3452 15.2366 98.3748 15.3077C98.4044 15.3787 98.4478 15.4433 98.5025 15.4975C98.5567 15.5522 98.6213 15.5956 98.6923 15.6252C98.7634 15.6548 98.8397 15.67 98.9167 15.67C98.9937 15.67 99.0699 15.6548 99.141 15.6252C99.2121 15.5956 99.2766 15.5522 99.3308 15.4975L103 11.8225L106.669 15.4975C106.723 15.5522 106.788 15.5956 106.859 15.6252C106.93 15.6548 107.006 15.67 107.083 15.67C107.16 15.67 107.237 15.6548 107.308 15.6252C107.379 15.5956 107.443 15.5522 107.498 15.4975C107.552 15.4433 107.596 15.3787 107.625 15.3077C107.655 15.2366 107.67 15.1603 107.67 15.0833C107.67 15.0063 107.655 14.9301 107.625 14.859C107.596 14.7879 107.552 14.7234 107.498 14.6692L103.823 11Z" fill="#FEFDFA"/>
<path d="M15.5 30L10.7369 21.75L20.2631 21.75L15.5 30Z" fill="#DD141D"/>
</svg>
