<svg width="214" height="214" viewBox="0 0 214 214" fill="none" xmlns="http://www.w3.org/2000/svg">
<circle cx="107" cy="107" r="89.5" stroke="#2A1C53" stroke-width="35"/>
<path d="M196.947 107C206.365 107 214.139 114.682 212.644 123.981C210.213 139.105 204.551 153.599 195.967 166.446C184.21 184.042 167.499 197.757 147.947 205.855C128.395 213.954 106.881 216.073 86.1253 211.944C65.3694 207.815 46.3038 197.625 31.3396 182.66C16.3754 167.696 6.18459 148.631 2.05597 127.875C-2.07264 107.119 0.0463134 85.6046 8.14489 66.0529C16.2435 46.5012 29.9579 29.7901 47.554 18.0328C60.4006 9.44892 74.8949 3.78706 90.019 1.35598C99.3176 -0.13871 107 7.63478 107 17.0528V17.0528C107 26.4707 99.2635 33.9078 90.1021 36.0911C81.7299 38.0863 73.7328 41.559 66.502 46.3904C54.5146 54.4002 45.1715 65.7848 39.6543 79.1045C34.1371 92.4242 32.6935 107.081 35.5062 121.221C38.3188 135.361 45.2613 148.35 55.4558 158.544C65.6503 168.739 78.6388 175.681 92.779 178.494C106.919 181.306 121.576 179.863 134.896 174.346C148.215 168.829 159.6 159.485 167.61 147.498C172.441 140.267 175.914 132.27 177.909 123.898C180.092 114.736 187.529 107 196.947 107V107Z" fill="#FE5D7C"/>
<path d="M60.7734 112.188C61.6641 112.146 62.2786 111.82 62.6172 111.211C62.7943 110.898 62.8828 110.536 62.8828 110.125C62.8828 109.474 62.6432 108.979 62.1641 108.641C61.888 108.443 61.4245 108.255 60.7734 108.078V112.188ZM58.125 104.648C58.125 105.164 58.2943 105.568 58.6328 105.859C58.9766 106.151 59.4375 106.354 60.0156 106.469V102.797C59.3333 102.823 58.8464 103.031 58.5547 103.422C58.2682 103.812 58.125 104.221 58.125 104.648ZM56.7188 104.742C56.7188 103.951 57.0078 103.237 57.5859 102.602C58.1693 101.966 58.9844 101.643 60.0312 101.633V100.594H60.7734V101.617C61.8099 101.69 62.6042 101.997 63.1562 102.539C63.7135 103.076 64.0052 103.786 64.0312 104.672H62.6641C62.6276 104.276 62.5208 103.935 62.3438 103.648C62.0156 103.122 61.4922 102.846 60.7734 102.82V106.617C61.9818 106.956 62.8021 107.273 63.2344 107.57C63.9375 108.06 64.2891 108.784 64.2891 109.742C64.2891 111.128 63.8385 112.112 62.9375 112.695C62.4375 113.018 61.7161 113.232 60.7734 113.336V114.852H60.0312V113.336C58.5156 113.237 57.487 112.701 56.9453 111.727C56.6484 111.201 56.5 110.49 56.5 109.594H57.8828C57.9245 110.307 58.0365 110.828 58.2188 111.156C58.5417 111.745 59.1406 112.076 60.0156 112.148V107.891C58.8906 107.677 58.0599 107.32 57.5234 106.82C56.987 106.32 56.7188 105.628 56.7188 104.742ZM71.4844 110.297C71.526 111.073 71.8255 111.609 72.3828 111.906C72.6693 112.062 72.9922 112.141 73.3516 112.141C74.0234 112.141 74.5964 111.862 75.0703 111.305C75.5443 110.742 75.8802 109.604 76.0781 107.891C75.7656 108.385 75.3776 108.734 74.9141 108.938C74.4557 109.135 73.9609 109.234 73.4297 109.234C72.3516 109.234 71.4974 108.898 70.8672 108.227C70.2422 107.555 69.9297 106.69 69.9297 105.633C69.9297 104.617 70.2396 103.724 70.8594 102.953C71.4792 102.182 72.3932 101.797 73.6016 101.797C75.2318 101.797 76.3568 102.531 76.9766 104C77.3203 104.807 77.4922 105.818 77.4922 107.031C77.4922 108.401 77.2865 109.615 76.875 110.672C76.1927 112.432 75.0365 113.312 73.4062 113.312C72.3125 113.312 71.4818 113.026 70.9141 112.453C70.3464 111.88 70.0625 111.161 70.0625 110.297H71.4844ZM73.6172 108C74.1745 108 74.6823 107.818 75.1406 107.453C75.6042 107.083 75.8359 106.44 75.8359 105.523C75.8359 104.701 75.6276 104.089 75.2109 103.688C74.7995 103.281 74.2734 103.078 73.6328 103.078C72.9453 103.078 72.3984 103.31 71.9922 103.773C71.5911 104.232 71.3906 104.846 71.3906 105.617C71.3906 106.346 71.5677 106.927 71.9219 107.359C72.276 107.786 72.8411 108 73.6172 108ZM80.3906 110.297C80.4323 111.073 80.7318 111.609 81.2891 111.906C81.5755 112.062 81.8984 112.141 82.2578 112.141C82.9297 112.141 83.5026 111.862 83.9766 111.305C84.4505 110.742 84.7865 109.604 84.9844 107.891C84.6719 108.385 84.2839 108.734 83.8203 108.938C83.362 109.135 82.8672 109.234 82.3359 109.234C81.2578 109.234 80.4036 108.898 79.7734 108.227C79.1484 107.555 78.8359 106.69 78.8359 105.633C78.8359 104.617 79.1458 103.724 79.7656 102.953C80.3854 102.182 81.2995 101.797 82.5078 101.797C84.138 101.797 85.263 102.531 85.8828 104C86.2266 104.807 86.3984 105.818 86.3984 107.031C86.3984 108.401 86.1927 109.615 85.7812 110.672C85.099 112.432 83.9427 113.312 82.3125 113.312C81.2188 113.312 80.388 113.026 79.8203 112.453C79.2526 111.88 78.9688 111.161 78.9688 110.297H80.3906ZM82.5234 108C83.0807 108 83.5885 107.818 84.0469 107.453C84.5104 107.083 84.7422 106.44 84.7422 105.523C84.7422 104.701 84.5339 104.089 84.1172 103.688C83.7057 103.281 83.1797 103.078 82.5391 103.078C81.8516 103.078 81.3047 103.31 80.8984 103.773C80.4974 104.232 80.2969 104.846 80.2969 105.617C80.2969 106.346 80.474 106.927 80.8281 107.359C81.1823 107.786 81.7474 108 82.5234 108ZM89.2969 110.297C89.3385 111.073 89.638 111.609 90.1953 111.906C90.4818 112.062 90.8047 112.141 91.1641 112.141C91.8359 112.141 92.4089 111.862 92.8828 111.305C93.3568 110.742 93.6927 109.604 93.8906 107.891C93.5781 108.385 93.1901 108.734 92.7266 108.938C92.2682 109.135 91.7734 109.234 91.2422 109.234C90.1641 109.234 89.3099 108.898 88.6797 108.227C88.0547 107.555 87.7422 106.69 87.7422 105.633C87.7422 104.617 88.0521 103.724 88.6719 102.953C89.2917 102.182 90.2057 101.797 91.4141 101.797C93.0443 101.797 94.1693 102.531 94.7891 104C95.1328 104.807 95.3047 105.818 95.3047 107.031C95.3047 108.401 95.099 109.615 94.6875 110.672C94.0052 112.432 92.849 113.312 91.2188 113.312C90.125 113.312 89.2943 113.026 88.7266 112.453C88.1589 111.88 87.875 111.161 87.875 110.297H89.2969ZM91.4297 108C91.987 108 92.4948 107.818 92.9531 107.453C93.4167 107.083 93.6484 106.44 93.6484 105.523C93.6484 104.701 93.4401 104.089 93.0234 103.688C92.612 103.281 92.0859 103.078 91.4453 103.078C90.7578 103.078 90.2109 103.31 89.8047 103.773C89.4036 104.232 89.2031 104.846 89.2031 105.617C89.2031 106.346 89.3802 106.927 89.7344 107.359C90.0885 107.786 90.6536 108 91.4297 108ZM97.4453 111.297H99.0781V113H97.4453V111.297ZM102.656 110.297C102.698 111.073 102.997 111.609 103.555 111.906C103.841 112.062 104.164 112.141 104.523 112.141C105.195 112.141 105.768 111.862 106.242 111.305C106.716 110.742 107.052 109.604 107.25 107.891C106.938 108.385 106.549 108.734 106.086 108.938C105.628 109.135 105.133 109.234 104.602 109.234C103.523 109.234 102.669 108.898 102.039 108.227C101.414 107.555 101.102 106.69 101.102 105.633C101.102 104.617 101.411 103.724 102.031 102.953C102.651 102.182 103.565 101.797 104.773 101.797C106.404 101.797 107.529 102.531 108.148 104C108.492 104.807 108.664 105.818 108.664 107.031C108.664 108.401 108.458 109.615 108.047 110.672C107.365 112.432 106.208 113.312 104.578 113.312C103.484 113.312 102.654 113.026 102.086 112.453C101.518 111.88 101.234 111.161 101.234 110.297H102.656ZM104.789 108C105.346 108 105.854 107.818 106.312 107.453C106.776 107.083 107.008 106.44 107.008 105.523C107.008 104.701 106.799 104.089 106.383 103.688C105.971 103.281 105.445 103.078 104.805 103.078C104.117 103.078 103.57 103.31 103.164 103.773C102.763 104.232 102.562 104.846 102.562 105.617C102.562 106.346 102.74 106.927 103.094 107.359C103.448 107.786 104.013 108 104.789 108ZM111.562 110.297C111.604 111.073 111.904 111.609 112.461 111.906C112.747 112.062 113.07 112.141 113.43 112.141C114.102 112.141 114.674 111.862 115.148 111.305C115.622 110.742 115.958 109.604 116.156 107.891C115.844 108.385 115.456 108.734 114.992 108.938C114.534 109.135 114.039 109.234 113.508 109.234C112.43 109.234 111.576 108.898 110.945 108.227C110.32 107.555 110.008 106.69 110.008 105.633C110.008 104.617 110.318 103.724 110.938 102.953C111.557 102.182 112.471 101.797 113.68 101.797C115.31 101.797 116.435 102.531 117.055 104C117.398 104.807 117.57 105.818 117.57 107.031C117.57 108.401 117.365 109.615 116.953 110.672C116.271 112.432 115.115 113.312 113.484 113.312C112.391 113.312 111.56 113.026 110.992 112.453C110.424 111.88 110.141 111.161 110.141 110.297H111.562ZM113.695 108C114.253 108 114.76 107.818 115.219 107.453C115.682 107.083 115.914 106.44 115.914 105.523C115.914 104.701 115.706 104.089 115.289 103.688C114.878 103.281 114.352 103.078 113.711 103.078C113.023 103.078 112.477 103.31 112.07 103.773C111.669 104.232 111.469 104.846 111.469 105.617C111.469 106.346 111.646 106.927 112 107.359C112.354 107.786 112.919 108 113.695 108ZM120.469 110.297C120.51 111.073 120.81 111.609 121.367 111.906C121.654 112.062 121.977 112.141 122.336 112.141C123.008 112.141 123.581 111.862 124.055 111.305C124.529 110.742 124.865 109.604 125.062 107.891C124.75 108.385 124.362 108.734 123.898 108.938C123.44 109.135 122.945 109.234 122.414 109.234C121.336 109.234 120.482 108.898 119.852 108.227C119.227 107.555 118.914 106.69 118.914 105.633C118.914 104.617 119.224 103.724 119.844 102.953C120.464 102.182 121.378 101.797 122.586 101.797C124.216 101.797 125.341 102.531 125.961 104C126.305 104.807 126.477 105.818 126.477 107.031C126.477 108.401 126.271 109.615 125.859 110.672C125.177 112.432 124.021 113.312 122.391 113.312C121.297 113.312 120.466 113.026 119.898 112.453C119.331 111.88 119.047 111.161 119.047 110.297H120.469ZM122.602 108C123.159 108 123.667 107.818 124.125 107.453C124.589 107.083 124.82 106.44 124.82 105.523C124.82 104.701 124.612 104.089 124.195 103.688C123.784 103.281 123.258 103.078 122.617 103.078C121.93 103.078 121.383 103.31 120.977 103.773C120.576 104.232 120.375 104.846 120.375 105.617C120.375 106.346 120.552 106.927 120.906 107.359C121.26 107.786 121.826 108 122.602 108ZM128.617 111.297H130.25V113H128.617V111.297ZM133.828 110.297C133.87 111.073 134.169 111.609 134.727 111.906C135.013 112.062 135.336 112.141 135.695 112.141C136.367 112.141 136.94 111.862 137.414 111.305C137.888 110.742 138.224 109.604 138.422 107.891C138.109 108.385 137.721 108.734 137.258 108.938C136.799 109.135 136.305 109.234 135.773 109.234C134.695 109.234 133.841 108.898 133.211 108.227C132.586 107.555 132.273 106.69 132.273 105.633C132.273 104.617 132.583 103.724 133.203 102.953C133.823 102.182 134.737 101.797 135.945 101.797C137.576 101.797 138.701 102.531 139.32 104C139.664 104.807 139.836 105.818 139.836 107.031C139.836 108.401 139.63 109.615 139.219 110.672C138.536 112.432 137.38 113.312 135.75 113.312C134.656 113.312 133.826 113.026 133.258 112.453C132.69 111.88 132.406 111.161 132.406 110.297H133.828ZM135.961 108C136.518 108 137.026 107.818 137.484 107.453C137.948 107.083 138.18 106.44 138.18 105.523C138.18 104.701 137.971 104.089 137.555 103.688C137.143 103.281 136.617 103.078 135.977 103.078C135.289 103.078 134.742 103.31 134.336 103.773C133.935 104.232 133.734 104.846 133.734 105.617C133.734 106.346 133.911 106.927 134.266 107.359C134.62 107.786 135.185 108 135.961 108ZM142.734 110.297C142.776 111.073 143.076 111.609 143.633 111.906C143.919 112.062 144.242 112.141 144.602 112.141C145.273 112.141 145.846 111.862 146.32 111.305C146.794 110.742 147.13 109.604 147.328 107.891C147.016 108.385 146.628 108.734 146.164 108.938C145.706 109.135 145.211 109.234 144.68 109.234C143.602 109.234 142.747 108.898 142.117 108.227C141.492 107.555 141.18 106.69 141.18 105.633C141.18 104.617 141.49 103.724 142.109 102.953C142.729 102.182 143.643 101.797 144.852 101.797C146.482 101.797 147.607 102.531 148.227 104C148.57 104.807 148.742 105.818 148.742 107.031C148.742 108.401 148.536 109.615 148.125 110.672C147.443 112.432 146.286 113.312 144.656 113.312C143.562 113.312 142.732 113.026 142.164 112.453C141.596 111.88 141.312 111.161 141.312 110.297H142.734ZM144.867 108C145.424 108 145.932 107.818 146.391 107.453C146.854 107.083 147.086 106.44 147.086 105.523C147.086 104.701 146.878 104.089 146.461 103.688C146.049 103.281 145.523 103.078 144.883 103.078C144.195 103.078 143.648 103.31 143.242 103.773C142.841 104.232 142.641 104.846 142.641 105.617C142.641 106.346 142.818 106.927 143.172 107.359C143.526 107.786 144.091 108 144.867 108ZM151.641 110.297C151.682 111.073 151.982 111.609 152.539 111.906C152.826 112.062 153.148 112.141 153.508 112.141C154.18 112.141 154.753 111.862 155.227 111.305C155.701 110.742 156.036 109.604 156.234 107.891C155.922 108.385 155.534 108.734 155.07 108.938C154.612 109.135 154.117 109.234 153.586 109.234C152.508 109.234 151.654 108.898 151.023 108.227C150.398 107.555 150.086 106.69 150.086 105.633C150.086 104.617 150.396 103.724 151.016 102.953C151.635 102.182 152.549 101.797 153.758 101.797C155.388 101.797 156.513 102.531 157.133 104C157.477 104.807 157.648 105.818 157.648 107.031C157.648 108.401 157.443 109.615 157.031 110.672C156.349 112.432 155.193 113.312 153.562 113.312C152.469 113.312 151.638 113.026 151.07 112.453C150.503 111.88 150.219 111.161 150.219 110.297H151.641ZM153.773 108C154.331 108 154.839 107.818 155.297 107.453C155.76 107.083 155.992 106.44 155.992 105.523C155.992 104.701 155.784 104.089 155.367 103.688C154.956 103.281 154.43 103.078 153.789 103.078C153.102 103.078 152.555 103.31 152.148 103.773C151.747 104.232 151.547 104.846 151.547 105.617C151.547 106.346 151.724 106.927 152.078 107.359C152.432 107.786 152.997 108 153.773 108Z" fill="#FEFDFA"/>
<path d="M67.6035 126.221H68.6724V127.343H67.6035V126.221ZM66.9644 129.991C67.2902 129.665 67.4925 129.393 67.5713 129.175C67.6501 128.956 67.6895 128.643 67.6895 128.235H68.6455C68.6455 128.779 68.5918 129.18 68.4844 129.438C68.377 129.696 68.078 130.084 67.5874 130.604L67.1685 131.049C66.9823 131.243 66.8569 131.424 66.7925 131.592C66.728 131.76 66.6958 131.921 66.6958 132.075C66.6958 132.44 66.8104 132.748 67.0396 132.999C67.2723 133.25 67.634 133.375 68.1245 133.375C68.6652 133.375 69.0501 133.176 69.2793 132.779C69.4082 132.55 69.4906 132.172 69.5264 131.646H70.4556C70.4699 132.53 70.2407 133.18 69.7681 133.595C69.299 134.011 68.7332 134.218 68.0708 134.218C67.4084 134.218 66.8426 134.034 66.3735 133.665C65.908 133.296 65.6753 132.786 65.6753 132.134C65.6753 131.773 65.7594 131.456 65.9277 131.184C66.096 130.911 66.3574 130.598 66.7119 130.244L66.9644 129.991ZM72.2656 124.11H73.3452V127.37H77.4487V124.11H78.5283V132H77.4487V128.31H73.3452V132H72.2656V124.11ZM82.3418 131.377C82.9827 131.377 83.4214 131.135 83.6577 130.652C83.8976 130.165 84.0176 129.624 84.0176 129.03C84.0176 128.493 83.9316 128.056 83.7598 127.719C83.4876 127.189 83.0186 126.924 82.3525 126.924C81.7617 126.924 81.332 127.15 81.0635 127.601C80.7949 128.052 80.6606 128.597 80.6606 129.234C80.6606 129.846 80.7949 130.356 81.0635 130.765C81.332 131.173 81.7581 131.377 82.3418 131.377ZM82.3794 126.081C83.1206 126.081 83.7472 126.328 84.2593 126.822C84.7713 127.316 85.0273 128.043 85.0273 129.003C85.0273 129.93 84.8018 130.697 84.3506 131.302C83.8994 131.907 83.1994 132.209 82.2505 132.209C81.4591 132.209 80.8307 131.943 80.3652 131.409C79.8997 130.872 79.667 130.152 79.667 129.25C79.667 128.283 79.9123 127.513 80.4028 126.94C80.8934 126.368 81.5522 126.081 82.3794 126.081ZM86.6279 126.248L87.7344 130.781L88.8569 126.248H89.9419L91.0698 130.754L92.2461 126.248H93.2129L91.5425 132H90.5381L89.3672 127.547L88.2339 132H87.2295L85.5698 126.248H86.6279ZM97.1929 126.248H98.1489V127.064C98.3781 126.781 98.5858 126.575 98.772 126.446C99.0907 126.228 99.4523 126.119 99.8569 126.119C100.315 126.119 100.684 126.231 100.963 126.457C101.121 126.586 101.264 126.776 101.393 127.026C101.608 126.718 101.86 126.491 102.15 126.344C102.44 126.194 102.766 126.119 103.128 126.119C103.901 126.119 104.428 126.398 104.707 126.957C104.857 127.257 104.933 127.662 104.933 128.17V132H103.928V128.004C103.928 127.621 103.832 127.358 103.638 127.214C103.448 127.071 103.216 127 102.94 127C102.56 127 102.233 127.127 101.957 127.381C101.685 127.635 101.549 128.059 101.549 128.654V132H100.566V128.246C100.566 127.855 100.519 127.571 100.426 127.392C100.279 127.123 100.006 126.989 99.6045 126.989C99.2393 126.989 98.9062 127.13 98.6055 127.413C98.3083 127.696 98.1597 128.208 98.1597 128.949V132H97.1929V126.248ZM107.323 126.248V130.066C107.323 130.36 107.369 130.6 107.462 130.786C107.634 131.13 107.955 131.302 108.424 131.302C109.097 131.302 109.555 131.001 109.799 130.399C109.931 130.077 109.998 129.635 109.998 129.073V126.248H110.964V132H110.051L110.062 131.151C109.937 131.37 109.781 131.554 109.595 131.705C109.226 132.005 108.778 132.156 108.252 132.156C107.432 132.156 106.873 131.882 106.576 131.334C106.415 131.04 106.334 130.648 106.334 130.158V126.248H107.323ZM114.697 126.081C115.345 126.081 115.872 126.239 116.276 126.554C116.685 126.869 116.93 127.411 117.012 128.181H116.072C116.015 127.827 115.884 127.533 115.68 127.3C115.476 127.064 115.148 126.946 114.697 126.946C114.081 126.946 113.641 127.247 113.376 127.848C113.204 128.238 113.118 128.72 113.118 129.293C113.118 129.869 113.24 130.355 113.483 130.749C113.727 131.142 114.11 131.339 114.633 131.339C115.034 131.339 115.351 131.218 115.583 130.974C115.82 130.727 115.983 130.39 116.072 129.964H117.012C116.905 130.727 116.636 131.286 116.207 131.64C115.777 131.991 115.227 132.167 114.558 132.167C113.806 132.167 113.206 131.893 112.758 131.345C112.311 130.793 112.087 130.106 112.087 129.282C112.087 128.272 112.332 127.486 112.823 126.924C113.313 126.362 113.938 126.081 114.697 126.081ZM117.979 124.083H118.946V127.026C119.175 126.736 119.381 126.532 119.563 126.414C119.875 126.21 120.264 126.108 120.729 126.108C121.563 126.108 122.129 126.4 122.426 126.983C122.587 127.302 122.668 127.744 122.668 128.31V132H121.674V128.375C121.674 127.952 121.621 127.642 121.513 127.445C121.338 127.13 121.008 126.973 120.525 126.973C120.124 126.973 119.76 127.111 119.435 127.386C119.109 127.662 118.946 128.183 118.946 128.949V132H117.979V124.083ZM129.382 126.081C130.03 126.081 130.556 126.239 130.961 126.554C131.369 126.869 131.614 127.411 131.697 128.181H130.757C130.7 127.827 130.569 127.533 130.365 127.3C130.161 127.064 129.833 126.946 129.382 126.946C128.766 126.946 128.326 127.247 128.061 127.848C127.889 128.238 127.803 128.72 127.803 129.293C127.803 129.869 127.924 130.355 128.168 130.749C128.411 131.142 128.795 131.339 129.317 131.339C129.718 131.339 130.035 131.218 130.268 130.974C130.504 130.727 130.667 130.39 130.757 129.964H131.697C131.589 130.727 131.321 131.286 130.891 131.64C130.461 131.991 129.912 132.167 129.242 132.167C128.49 132.167 127.89 131.893 127.443 131.345C126.995 130.793 126.771 130.106 126.771 129.282C126.771 128.272 127.017 127.486 127.507 126.924C127.998 126.362 128.623 126.081 129.382 126.081ZM133.405 130.469C133.405 130.749 133.507 130.969 133.711 131.13C133.915 131.291 134.157 131.372 134.436 131.372C134.776 131.372 135.106 131.293 135.424 131.135C135.961 130.874 136.23 130.446 136.23 129.852V129.073C136.112 129.148 135.96 129.211 135.773 129.261C135.587 129.311 135.405 129.347 135.226 129.368L134.64 129.443C134.289 129.49 134.026 129.563 133.851 129.664C133.553 129.832 133.405 130.1 133.405 130.469ZM135.747 128.514C135.969 128.486 136.117 128.392 136.192 128.235C136.235 128.149 136.257 128.025 136.257 127.864C136.257 127.535 136.139 127.297 135.902 127.15C135.67 127 135.335 126.924 134.898 126.924C134.393 126.924 134.035 127.06 133.824 127.333C133.706 127.483 133.629 127.707 133.593 128.004H132.69C132.708 127.295 132.938 126.803 133.378 126.527C133.822 126.248 134.336 126.108 134.919 126.108C135.596 126.108 136.146 126.237 136.568 126.495C136.987 126.752 137.197 127.153 137.197 127.698V131.012C137.197 131.112 137.216 131.193 137.256 131.253C137.299 131.314 137.387 131.345 137.519 131.345C137.562 131.345 137.61 131.343 137.664 131.339C137.718 131.332 137.775 131.323 137.836 131.312V132.027C137.686 132.07 137.571 132.097 137.492 132.107C137.413 132.118 137.306 132.124 137.17 132.124C136.837 132.124 136.595 132.005 136.445 131.769C136.366 131.644 136.311 131.466 136.278 131.237C136.081 131.495 135.799 131.719 135.43 131.909C135.061 132.098 134.654 132.193 134.21 132.193C133.677 132.193 133.24 132.032 132.9 131.71C132.563 131.384 132.395 130.978 132.395 130.491C132.395 129.957 132.562 129.544 132.895 129.25C133.228 128.956 133.664 128.776 134.205 128.708L135.747 128.514ZM138.787 126.248H139.705V127.064C139.977 126.727 140.265 126.486 140.57 126.339C140.874 126.192 141.213 126.119 141.585 126.119C142.401 126.119 142.953 126.403 143.239 126.973C143.397 127.284 143.476 127.73 143.476 128.31V132H142.493V128.375C142.493 128.024 142.441 127.741 142.337 127.526C142.165 127.168 141.854 126.989 141.402 126.989C141.173 126.989 140.985 127.012 140.838 127.059C140.573 127.137 140.341 127.295 140.14 127.531C139.979 127.721 139.873 127.918 139.823 128.122C139.777 128.323 139.753 128.611 139.753 128.987V132H138.787V126.248ZM148.342 124.11H149.421V132H148.342V124.11ZM87.4336 140.248H88.3521V141.241C88.4272 141.048 88.6117 140.813 88.9053 140.538C89.1989 140.258 89.5373 140.119 89.9204 140.119C89.9383 140.119 89.9688 140.12 90.0117 140.124C90.0547 140.128 90.1281 140.135 90.2319 140.146V141.166C90.1746 141.155 90.1209 141.148 90.0708 141.145C90.0243 141.141 89.9723 141.139 89.915 141.139C89.4281 141.139 89.0539 141.297 88.7925 141.612C88.5311 141.923 88.4004 142.283 88.4004 142.691V146H87.4336V140.248ZM93.4653 140.119C93.8735 140.119 94.2692 140.215 94.6523 140.409C95.0355 140.598 95.3273 140.846 95.5278 141.15C95.7212 141.44 95.8501 141.778 95.9146 142.165C95.9718 142.43 96.0005 142.853 96.0005 143.433H91.7842C91.8021 144.016 91.9399 144.485 92.1978 144.84C92.4556 145.191 92.8548 145.366 93.3955 145.366C93.9004 145.366 94.3032 145.2 94.604 144.867C94.7759 144.673 94.8976 144.45 94.9692 144.195H95.9199C95.8949 144.407 95.8107 144.643 95.6675 144.904C95.5278 145.162 95.3703 145.373 95.1948 145.538C94.9012 145.825 94.5378 146.018 94.1045 146.118C93.8717 146.175 93.6086 146.204 93.3149 146.204C92.5988 146.204 91.9919 145.944 91.4941 145.425C90.9964 144.903 90.7476 144.172 90.7476 143.234C90.7476 142.31 90.9982 141.56 91.4995 140.983C92.0008 140.407 92.6561 140.119 93.4653 140.119ZM95.0068 142.665C94.9674 142.246 94.8761 141.911 94.7329 141.66C94.4679 141.195 94.0257 140.962 93.4062 140.962C92.9622 140.962 92.5898 141.123 92.2891 141.445C91.9883 141.764 91.8289 142.17 91.811 142.665H95.0068ZM99.4111 140.081C100.059 140.081 100.586 140.239 100.99 140.554C101.398 140.869 101.644 141.411 101.726 142.181H100.786C100.729 141.827 100.598 141.533 100.394 141.3C100.19 141.064 99.8623 140.946 99.4111 140.946C98.7952 140.946 98.3548 141.247 98.0898 141.848C97.918 142.238 97.832 142.72 97.832 143.293C97.832 143.869 97.9538 144.355 98.1973 144.749C98.4408 145.142 98.8239 145.339 99.3467 145.339C99.7477 145.339 100.065 145.218 100.297 144.974C100.534 144.727 100.697 144.39 100.786 143.964H101.726C101.619 144.727 101.35 145.286 100.92 145.64C100.491 145.991 99.9411 146.167 99.2715 146.167C98.5195 146.167 97.9198 145.893 97.4722 145.345C97.0246 144.793 96.8008 144.106 96.8008 143.282C96.8008 142.272 97.0461 141.486 97.5366 140.924C98.0272 140.362 98.652 140.081 99.4111 140.081ZM105.088 140.119C105.497 140.119 105.892 140.215 106.275 140.409C106.659 140.598 106.95 140.846 107.151 141.15C107.344 141.44 107.473 141.778 107.538 142.165C107.595 142.43 107.624 142.853 107.624 143.433H103.407C103.425 144.016 103.563 144.485 103.821 144.84C104.079 145.191 104.478 145.366 105.019 145.366C105.523 145.366 105.926 145.2 106.227 144.867C106.399 144.673 106.521 144.45 106.592 144.195H107.543C107.518 144.407 107.434 144.643 107.291 144.904C107.151 145.162 106.993 145.373 106.818 145.538C106.524 145.825 106.161 146.018 105.728 146.118C105.495 146.175 105.232 146.204 104.938 146.204C104.222 146.204 103.615 145.944 103.117 145.425C102.619 144.903 102.371 144.172 102.371 143.234C102.371 142.31 102.621 141.56 103.123 140.983C103.624 140.407 104.279 140.119 105.088 140.119ZM106.63 142.665C106.59 142.246 106.499 141.911 106.356 141.66C106.091 141.195 105.649 140.962 105.029 140.962C104.585 140.962 104.213 141.123 103.912 141.445C103.611 141.764 103.452 142.17 103.434 142.665H106.63ZM108.816 140.274H109.799V146H108.816V140.274ZM108.816 138.11H109.799V139.206H108.816V138.11ZM111.738 140.248L113.274 144.931L114.88 140.248H115.938L113.768 146H112.737L110.615 140.248H111.738ZM119.161 140.119C119.569 140.119 119.965 140.215 120.348 140.409C120.731 140.598 121.023 140.846 121.223 141.15C121.417 141.44 121.545 141.778 121.61 142.165C121.667 142.43 121.696 142.853 121.696 143.433H117.479C117.497 144.016 117.635 144.485 117.893 144.84C118.151 145.191 118.55 145.366 119.091 145.366C119.596 145.366 119.999 145.2 120.299 144.867C120.471 144.673 120.593 144.45 120.665 144.195H121.615C121.59 144.407 121.506 144.643 121.363 144.904C121.223 145.162 121.066 145.373 120.89 145.538C120.597 145.825 120.233 146.018 119.8 146.118C119.567 146.175 119.304 146.204 119.01 146.204C118.294 146.204 117.687 145.944 117.189 145.425C116.692 144.903 116.443 144.172 116.443 143.234C116.443 142.31 116.694 141.56 117.195 140.983C117.696 140.407 118.351 140.119 119.161 140.119ZM120.702 142.665C120.663 142.246 120.571 141.911 120.428 141.66C120.163 141.195 119.721 140.962 119.102 140.962C118.658 140.962 118.285 141.123 117.984 141.445C117.684 141.764 117.524 142.17 117.506 142.665H120.702ZM124.827 144.883H125.896V146H124.827V144.883ZM123.017 140.581C123.017 139.807 123.236 139.186 123.672 138.717C124.109 138.244 124.709 138.008 125.472 138.008C126.177 138.008 126.741 138.21 127.164 138.615C127.59 139.016 127.803 139.53 127.803 140.156C127.803 140.536 127.724 140.844 127.566 141.08C127.412 141.316 127.099 141.664 126.626 142.122C126.283 142.455 126.059 142.738 125.955 142.971C125.855 143.2 125.805 143.54 125.805 143.991H124.849C124.849 143.479 124.91 143.067 125.031 142.756C125.153 142.441 125.42 142.081 125.832 141.676L126.261 141.252C126.39 141.13 126.494 141.003 126.573 140.871C126.716 140.638 126.788 140.396 126.788 140.146C126.788 139.795 126.682 139.49 126.471 139.232C126.263 138.975 125.917 138.846 125.434 138.846C124.836 138.846 124.423 139.068 124.193 139.512C124.064 139.759 123.991 140.115 123.973 140.581H123.017Z" fill="#FEFDFA"/>
<path d="M138.115 142.941C138.015 143.042 137.959 143.178 137.958 143.32C137.958 143.393 137.973 143.464 138.002 143.531C138.051 143.646 138.138 143.74 138.248 143.798C138.358 143.856 138.486 143.875 138.608 143.85C138.73 143.825 138.84 143.759 138.919 143.662C138.998 143.566 139.041 143.445 139.042 143.32C139.041 143.178 138.985 143.042 138.885 142.941C138.834 142.89 138.774 142.85 138.708 142.822C138.642 142.795 138.572 142.781 138.5 142.781C138.429 142.781 138.358 142.795 138.292 142.822C138.226 142.85 138.166 142.89 138.115 142.941ZM142.633 136.982C142.57 136.932 142.496 136.895 142.418 136.877C142.339 136.858 142.257 136.857 142.178 136.874C141.599 136.995 141.002 136.997 140.422 136.879C139.843 136.76 139.294 136.525 138.809 136.186C138.718 136.123 138.61 136.09 138.5 136.09C138.39 136.09 138.282 136.123 138.191 136.186C137.706 136.524 137.157 136.758 136.577 136.876C135.998 136.993 135.401 136.991 134.822 136.869C134.743 136.852 134.661 136.853 134.582 136.871C134.504 136.89 134.43 136.926 134.367 136.977C134.304 137.028 134.254 137.092 134.219 137.166C134.184 137.239 134.166 137.319 134.167 137.4V141.435C134.166 142.212 134.351 142.977 134.706 143.668C135.062 144.358 135.577 144.954 136.209 145.405L138.186 146.814C138.278 146.879 138.387 146.914 138.5 146.914C138.613 146.914 138.722 146.879 138.814 146.814L140.791 145.405C141.423 144.954 141.938 144.358 142.294 143.668C142.649 142.977 142.834 142.212 142.833 141.435V137.4C142.834 137.319 142.816 137.239 142.781 137.166C142.746 137.092 142.696 137.028 142.633 136.977V136.982ZM141.75 141.435C141.75 142.039 141.607 142.634 141.331 143.171C141.055 143.708 140.654 144.171 140.163 144.522L138.5 145.709L136.837 144.522C136.346 144.171 135.946 143.708 135.669 143.171C135.393 142.634 135.25 142.039 135.25 141.435V138.022C136.386 138.12 137.523 137.856 138.5 137.27C139.477 137.856 140.614 138.12 141.75 138.022V141.435ZM138.5 138.987C138.215 138.986 137.934 139.061 137.687 139.204C137.44 139.347 137.234 139.552 137.092 139.799C137.027 139.923 137.013 140.067 137.051 140.201C137.09 140.335 137.18 140.449 137.301 140.519C137.422 140.589 137.565 140.61 137.701 140.576C137.836 140.543 137.954 140.459 138.029 140.341C138.076 140.259 138.145 140.19 138.227 140.143C138.309 140.095 138.402 140.07 138.497 140.07C138.592 140.07 138.686 140.095 138.768 140.142C138.85 140.19 138.919 140.258 138.966 140.34C139.014 140.422 139.039 140.515 139.04 140.61C139.04 140.705 139.015 140.799 138.968 140.881C138.921 140.963 138.852 141.032 138.77 141.08C138.688 141.128 138.595 141.153 138.5 141.153C138.356 141.153 138.219 141.21 138.117 141.312C138.015 141.414 137.958 141.551 137.958 141.695C137.958 141.839 138.015 141.976 138.117 142.078C138.219 142.18 138.356 142.237 138.5 142.237C138.931 142.237 139.344 142.065 139.649 141.761C139.954 141.456 140.125 141.043 140.125 140.612C140.125 140.181 139.954 139.767 139.649 139.463C139.344 139.158 138.931 138.987 138.5 138.987V138.987Z" fill="#FEFDFA"/>
</svg>
